<?xml version="1.0" encoding="utf-8"?>
<!-- Generator: Adobe Illustrator 21.1.0, SVG Export Plug-In . SVG Version: 6.00 Build 0)  -->
<svg version="1.1" id="Слой_1" xmlns="http://www.w3.org/2000/svg" xmlns:xlink="http://www.w3.org/1999/xlink" x="0px" y="0px"
	 viewBox="0 0 32 32" style="enable-background:new 0 0 32 32;" xml:space="preserve">
<style type="text/css">
	.st0{fill:#FFFFFF;}
</style>
<g id="More_Horizontal">
	<path class="st0" d="M4,12c-2.2,0-4,1.8-4,4s1.8,4,4,4s4-1.8,4-4S6.2,12,4,12z M4,18c-1.1,0-2-0.9-2-2s0.9-2,2-2s2,0.9,2,2
		C6,17.1,5.1,18,4,18z"/>
	<path class="st0" d="M28,12c-2.2,0-4,1.8-4,4s1.8,4,4,4s4-1.8,4-4S30.2,12,28,12z M28,18c-1.1,0-2-0.9-2-2s0.9-2,2-2
		c1.1,0,2,0.9,2,2C30,17.1,29.1,18,28,18z"/>
	<path class="st0" d="M16,12c-2.2,0-4,1.8-4,4s1.8,4,4,4s4-1.8,4-4S18.2,12,16,12z M16,18c-1.1,0-2-0.9-2-2s0.9-2,2-2
		c1.1,0,2,0.9,2,2C18,17.1,17.1,18,16,18z"/>
</g>
</svg>
