<?xml version="1.0" ?><!DOCTYPE svg  PUBLIC '-//W3C//DTD SVG 1.1//EN'  'http://www.w3.org/Graphics/SVG/1.1/DTD/svg11.dtd'><svg enable-background="new 0 0 32 32" height="32px" id="Слой_1" version="1.1" viewBox="0 0 32 32" width="32px" xml:space="preserve" xmlns="http://www.w3.org/2000/svg" xmlns:xlink="http://www.w3.org/1999/xlink"><g id="More_Horizontal"><path d="M4,12c-2.209,0-4,1.791-4,4c0,2.209,1.791,4,4,4s4-1.791,4-4C8,13.791,6.209,12,4,12z M4,18   c-1.105,0-2-0.895-2-2c0-1.105,0.895-2,2-2s2,0.896,2,2C6,17.105,5.105,18,4,18z" fill="#121313"/><path d="M28,12c-2.209,0-4,1.791-4,4c0,2.209,1.791,4,4,4c2.209,0,4-1.791,4-4C32,13.791,30.209,12,28,12z M28,18   c-1.105,0-2-0.895-2-2c0-1.105,0.895-2,2-2c1.104,0,2,0.896,2,2C30,17.105,29.104,18,28,18z" fill="#121313"/><path d="M16,12c-2.209,0-4,1.791-4,4c0,2.209,1.791,4,4,4c2.209,0,4-1.791,4-4C20,13.791,18.209,12,16,12z M16,18   c-1.105,0-2-0.895-2-2c0-1.105,0.895-2,2-2c1.104,0,2,0.896,2,2C18,17.105,17.104,18,16,18z" fill="#121313"/></g><g/><g/><g/><g/><g/><g/></svg>